<?xml version="1.0" encoding="utf-8"?>
<svg version="1.1"
	 id="Layer_1" xmlns:cc="http://creativecommons.org/ns#" xmlns:dc="http://purl.org/dc/elements/1.1/" xmlns:rdf="http://www.w3.org/1999/02/22-rdf-syntax-ns#"
	 xmlns="http://www.w3.org/2000/svg" xmlns:xlink="http://www.w3.org/1999/xlink" x="0" y="0" width='380' height='500' viewBox="-1900 -2500 3800 5000">
<defs>
<radialGradient id='rg1' ><stop offset='0' stop-color='#880000' stop-opacity='1' /><stop offset='1' stop-color='#880000' stop-opacity='0' /></radialGradient><linearGradient id='dg1' x1='0' y1='1' x2='1' y2='0'><stop offset='0' stop-color='#880000' stop-opacity='0'/><stop offset='.5' stop-color='#880000' stop-opacity='1'/><stop offset='1' stop-color='#880000' stop-opacity='0' /></linearGradient>
<radialGradient id='rg2' ><stop offset='0' stop-color='#ff0000' stop-opacity='1' /><stop offset='1' stop-color='#ff0000' stop-opacity='0' /></radialGradient><linearGradient id='dg2' x1='0' y1='1' x2='1' y2='0'><stop offset='0' stop-color='#ff0000' stop-opacity='0'/><stop offset='.5' stop-color='#ff0000' stop-opacity='1'/><stop offset='1' stop-color='#ff0000' stop-opacity='0' /></linearGradient>
<radialGradient id='rg3' ><stop offset='0' stop-color='#008800' stop-opacity='1' /><stop offset='1' stop-color='#008800' stop-opacity='0' /></radialGradient><linearGradient id='dg3' x1='0' y1='1' x2='1' y2='0'><stop offset='0' stop-color='#008800' stop-opacity='0'/><stop offset='.5' stop-color='#008800' stop-opacity='1'/><stop offset='1' stop-color='#008800' stop-opacity='0' /></linearGradient>
<radialGradient id='rg4' ><stop offset='0' stop-color='#888800' stop-opacity='1' /><stop offset='1' stop-color='#888800' stop-opacity='0' /></radialGradient><linearGradient id='dg4' x1='0' y1='1' x2='1' y2='0'><stop offset='0' stop-color='#888800' stop-opacity='0'/><stop offset='.5' stop-color='#888800' stop-opacity='1'/><stop offset='1' stop-color='#888800' stop-opacity='0' /></linearGradient>
<radialGradient id='rg5' ><stop offset='0' stop-color='#ff8800' stop-opacity='1' /><stop offset='1' stop-color='#ff8800' stop-opacity='0' /></radialGradient><linearGradient id='dg5' x1='0' y1='1' x2='1' y2='0'><stop offset='0' stop-color='#ff8800' stop-opacity='0'/><stop offset='.5' stop-color='#ff8800' stop-opacity='1'/><stop offset='1' stop-color='#ff8800' stop-opacity='0' /></linearGradient>
<radialGradient id='rg6' ><stop offset='0' stop-color='#00ff00' stop-opacity='1' /><stop offset='1' stop-color='#00ff00' stop-opacity='0' /></radialGradient><linearGradient id='dg6' x1='0' y1='1' x2='1' y2='0'><stop offset='0' stop-color='#00ff00' stop-opacity='0'/><stop offset='.5' stop-color='#00ff00' stop-opacity='1'/><stop offset='1' stop-color='#00ff00' stop-opacity='0' /></linearGradient>
<radialGradient id='rg7' ><stop offset='0' stop-color='#88ff00' stop-opacity='1' /><stop offset='1' stop-color='#88ff00' stop-opacity='0' /></radialGradient><linearGradient id='dg7' x1='0' y1='1' x2='1' y2='0'><stop offset='0' stop-color='#88ff00' stop-opacity='0'/><stop offset='.5' stop-color='#88ff00' stop-opacity='1'/><stop offset='1' stop-color='#88ff00' stop-opacity='0' /></linearGradient>
<radialGradient id='rg8' ><stop offset='0' stop-color='#ffff00' stop-opacity='1' /><stop offset='1' stop-color='#ffff00' stop-opacity='0' /></radialGradient><linearGradient id='dg8' x1='0' y1='1' x2='1' y2='0'><stop offset='0' stop-color='#ffff00' stop-opacity='0'/><stop offset='.5' stop-color='#ffff00' stop-opacity='1'/><stop offset='1' stop-color='#ffff00' stop-opacity='0' /></linearGradient>
<radialGradient id='rg9' ><stop offset='0' stop-color='#000088' stop-opacity='1' /><stop offset='1' stop-color='#000088' stop-opacity='0' /></radialGradient><linearGradient id='dg9' x1='0' y1='1' x2='1' y2='0'><stop offset='0' stop-color='#000088' stop-opacity='0'/><stop offset='.5' stop-color='#000088' stop-opacity='1'/><stop offset='1' stop-color='#000088' stop-opacity='0' /></linearGradient>
<radialGradient id='rg10' ><stop offset='0' stop-color='#880088' stop-opacity='1' /><stop offset='1' stop-color='#880088' stop-opacity='0' /></radialGradient><linearGradient id='dg10' x1='0' y1='1' x2='1' y2='0'><stop offset='0' stop-color='#880088' stop-opacity='0'/><stop offset='.5' stop-color='#880088' stop-opacity='1'/><stop offset='1' stop-color='#880088' stop-opacity='0' /></linearGradient>
<radialGradient id='rg11' ><stop offset='0' stop-color='#ff0088' stop-opacity='1' /><stop offset='1' stop-color='#ff0088' stop-opacity='0' /></radialGradient><linearGradient id='dg11' x1='0' y1='1' x2='1' y2='0'><stop offset='0' stop-color='#ff0088' stop-opacity='0'/><stop offset='.5' stop-color='#ff0088' stop-opacity='1'/><stop offset='1' stop-color='#ff0088' stop-opacity='0' /></linearGradient>
<radialGradient id='rg12' ><stop offset='0' stop-color='#008888' stop-opacity='1' /><stop offset='1' stop-color='#008888' stop-opacity='0' /></radialGradient><linearGradient id='dg12' x1='0' y1='1' x2='1' y2='0'><stop offset='0' stop-color='#008888' stop-opacity='0'/><stop offset='.5' stop-color='#008888' stop-opacity='1'/><stop offset='1' stop-color='#008888' stop-opacity='0' /></linearGradient>
<radialGradient id='rg13' ><stop offset='0' stop-color='#888888' stop-opacity='1' /><stop offset='1' stop-color='#888888' stop-opacity='0' /></radialGradient><linearGradient id='dg13' x1='0' y1='1' x2='1' y2='0'><stop offset='0' stop-color='#888888' stop-opacity='0'/><stop offset='.5' stop-color='#888888' stop-opacity='1'/><stop offset='1' stop-color='#888888' stop-opacity='0' /></linearGradient>
<radialGradient id='rg14' ><stop offset='0' stop-color='#ff8888' stop-opacity='1' /><stop offset='1' stop-color='#ff8888' stop-opacity='0' /></radialGradient><linearGradient id='dg14' x1='0' y1='1' x2='1' y2='0'><stop offset='0' stop-color='#ff8888' stop-opacity='0'/><stop offset='.5' stop-color='#ff8888' stop-opacity='1'/><stop offset='1' stop-color='#ff8888' stop-opacity='0' /></linearGradient>
<radialGradient id='rg15' ><stop offset='0' stop-color='#00ff88' stop-opacity='1' /><stop offset='1' stop-color='#00ff88' stop-opacity='0' /></radialGradient><linearGradient id='dg15' x1='0' y1='1' x2='1' y2='0'><stop offset='0' stop-color='#00ff88' stop-opacity='0'/><stop offset='.5' stop-color='#00ff88' stop-opacity='1'/><stop offset='1' stop-color='#00ff88' stop-opacity='0' /></linearGradient>
<radialGradient id='rg16' ><stop offset='0' stop-color='#88ff88' stop-opacity='1' /><stop offset='1' stop-color='#88ff88' stop-opacity='0' /></radialGradient><linearGradient id='dg16' x1='0' y1='1' x2='1' y2='0'><stop offset='0' stop-color='#88ff88' stop-opacity='0'/><stop offset='.5' stop-color='#88ff88' stop-opacity='1'/><stop offset='1' stop-color='#88ff88' stop-opacity='0' /></linearGradient>
<radialGradient id='rg17' ><stop offset='0' stop-color='#ffff88' stop-opacity='1' /><stop offset='1' stop-color='#ffff88' stop-opacity='0' /></radialGradient><linearGradient id='dg17' x1='0' y1='1' x2='1' y2='0'><stop offset='0' stop-color='#ffff88' stop-opacity='0'/><stop offset='.5' stop-color='#ffff88' stop-opacity='1'/><stop offset='1' stop-color='#ffff88' stop-opacity='0' /></linearGradient>
<radialGradient id='rg18' ><stop offset='0' stop-color='#0000ff' stop-opacity='1' /><stop offset='1' stop-color='#0000ff' stop-opacity='0' /></radialGradient><linearGradient id='dg18' x1='0' y1='1' x2='1' y2='0'><stop offset='0' stop-color='#0000ff' stop-opacity='0'/><stop offset='.5' stop-color='#0000ff' stop-opacity='1'/><stop offset='1' stop-color='#0000ff' stop-opacity='0' /></linearGradient>
<radialGradient id='rg19' ><stop offset='0' stop-color='#8800ff' stop-opacity='1' /><stop offset='1' stop-color='#8800ff' stop-opacity='0' /></radialGradient><linearGradient id='dg19' x1='0' y1='1' x2='1' y2='0'><stop offset='0' stop-color='#8800ff' stop-opacity='0'/><stop offset='.5' stop-color='#8800ff' stop-opacity='1'/><stop offset='1' stop-color='#8800ff' stop-opacity='0' /></linearGradient>
<radialGradient id='rg20' ><stop offset='0' stop-color='#ff00ff' stop-opacity='1' /><stop offset='1' stop-color='#ff00ff' stop-opacity='0' /></radialGradient><linearGradient id='dg20' x1='0' y1='1' x2='1' y2='0'><stop offset='0' stop-color='#ff00ff' stop-opacity='0'/><stop offset='.5' stop-color='#ff00ff' stop-opacity='1'/><stop offset='1' stop-color='#ff00ff' stop-opacity='0' /></linearGradient>
<radialGradient id='rg21' ><stop offset='0' stop-color='#0088ff' stop-opacity='1' /><stop offset='1' stop-color='#0088ff' stop-opacity='0' /></radialGradient><linearGradient id='dg21' x1='0' y1='1' x2='1' y2='0'><stop offset='0' stop-color='#0088ff' stop-opacity='0'/><stop offset='.5' stop-color='#0088ff' stop-opacity='1'/><stop offset='1' stop-color='#0088ff' stop-opacity='0' /></linearGradient>
<radialGradient id='rg22' ><stop offset='0' stop-color='#8888ff' stop-opacity='1' /><stop offset='1' stop-color='#8888ff' stop-opacity='0' /></radialGradient><linearGradient id='dg22' x1='0' y1='1' x2='1' y2='0'><stop offset='0' stop-color='#8888ff' stop-opacity='0'/><stop offset='.5' stop-color='#8888ff' stop-opacity='1'/><stop offset='1' stop-color='#8888ff' stop-opacity='0' /></linearGradient>
<radialGradient id='rg23' ><stop offset='0' stop-color='#ff88ff' stop-opacity='1' /><stop offset='1' stop-color='#ff88ff' stop-opacity='0' /></radialGradient><linearGradient id='dg23' x1='0' y1='1' x2='1' y2='0'><stop offset='0' stop-color='#ff88ff' stop-opacity='0'/><stop offset='.5' stop-color='#ff88ff' stop-opacity='1'/><stop offset='1' stop-color='#ff88ff' stop-opacity='0' /></linearGradient>
<radialGradient id='rg24' ><stop offset='0' stop-color='#00ffff' stop-opacity='1' /><stop offset='1' stop-color='#00ffff' stop-opacity='0' /></radialGradient><linearGradient id='dg24' x1='0' y1='1' x2='1' y2='0'><stop offset='0' stop-color='#00ffff' stop-opacity='0'/><stop offset='.5' stop-color='#00ffff' stop-opacity='1'/><stop offset='1' stop-color='#00ffff' stop-opacity='0' /></linearGradient>
<radialGradient id='rg25' ><stop offset='0' stop-color='#88ffff' stop-opacity='1' /><stop offset='1' stop-color='#88ffff' stop-opacity='0' /></radialGradient><linearGradient id='dg25' x1='0' y1='1' x2='1' y2='0'><stop offset='0' stop-color='#88ffff' stop-opacity='0'/><stop offset='.5' stop-color='#88ffff' stop-opacity='1'/><stop offset='1' stop-color='#88ffff' stop-opacity='0' /></linearGradient>
<radialGradient id='rg26' ><stop offset='0' stop-color='#ffffff' stop-opacity='1' /><stop offset='1' stop-color='#ffffff' stop-opacity='0' /></radialGradient><linearGradient id='dg26' x1='0' y1='1' x2='1' y2='0'><stop offset='0' stop-color='#ffffff' stop-opacity='0'/><stop offset='.5' stop-color='#ffffff' stop-opacity='1'/><stop offset='1' stop-color='#ffffff' stop-opacity='0' /></linearGradient>
<radialGradient id='rg27' ><stop offset='0' stop-color='#undefined' stop-opacity='1' /><stop offset='1' stop-color='#undefined' stop-opacity='0' /></radialGradient><linearGradient id='dg27' x1='0' y1='1' x2='1' y2='0'><stop offset='0' stop-color='#undefined' stop-opacity='0'/><stop offset='.5' stop-color='#undefined' stop-opacity='1'/><stop offset='1' stop-color='#undefined' stop-opacity='0' /></linearGradient>
</defs><g style='fill:url(#dg1);fill-opacity:.1'>
  <rect style='fill:#000000; fill-opacity:1;' 
	x="-1900" y="-2500" width='3800' height='5000'/>
  <path id='one' transform='translate(-2050 -2500)' d="M3781.036,931.862c-40.159-52.935-47.138-53.597-125.417-11.881c-11.105,5.918-24.468,12.141-29.695,13.83
	c-13.291,4.294-30.583,17.07-35.872,18.338c-6.219,1.49-4.759,5.644-25.741,15.857c-13.497,6.57-14.742,7.612-43.453,36.407
	c-16.257,16.304-32.375,31.589-35.818,33.967c-8.208,5.669-11.531,11.59-32.458,33.856c-30.408,32.353-42.379,50.916-57.06,76.107
	l-11.993,0.509c-19.06,0.809-48.296,18.597-61.302,37.297c-3.668,5.274-15.012,12.937-19.151,12.937
	c-1.06,0-10.377,4.192-20.704,9.315c-49.784,24.698-54.931,17.842-102.516,34.276c-317.688,109.719-367.038,112.59-456.031,156.948
	c-161.754,80.625-140.092,109.602-306.261,180.727c-70.146,30.025-128.655,60.454-146.552,64.848
	c-4.695,1.153-4.593,1.326-13.192-22.37c-10.81-29.786-22.043-48.406-35.931-59.555c-9.308-7.473-5.767-9.009-9.729-10.045
	c-11.1-2.903,11.703-6.87,23.061-2.078c25.113,10.597,37.375,12.108,46.037,5.672c15.418-11.457-11.937-21.085-24.07-29.396
	c-11.188-7.664-57.613-24.473-68.002-24.621c-8.604-0.123-42.047,3.08-51.657,4.947c-7.125,1.385-12.955,1.385-27.385-0.001
	c-58.263-5.592-185.187-8.294-242.449,4.963c-52.795,12.223-55.572,12.452-144.032,11.872c-88.964-0.583-93.83,0.106-139.193,19.715
	c-35.641,15.406-48.396,9.342-137.161-1.431c-73.898-8.968-48.124-5.005-88.437-27.799c-8.511-4.812-15.36-11.095-13.408-12.302
	c0.655-0.404,0.783-8.387,0.285-17.74c-3.345-62.918,31.851-378.872,18.338-456.146c-5.909-33.795-22.691-84.425-31.105-93.841
	c-1.637-1.831-3.032-4.103-13.554-22.058c-17.803-30.382-28.668-30.233-61.883-54.919c-9.346-6.948-9.47-4.18-18.805-10.971
	c-9.355-6.806-21.164-16.273-30.453-19.323c-3.964-1.302-7.855-2.872-8.648-3.49c-2.855-2.225-17.378-7.142-21.095-7.143
	c-5.715-0.001-10.437-4.316-15.043-4.316c-5.116-0.015-11.314-6.494-32.932-12.215c-20.321-5.376-13.731-5.197-29.521-6.759
	c-40.624-4.017-37.798-5.074-54.909-3.35c-13.455,1.356-14.179,1.702-15.834,7.556c-3.24,11.46-23.027,24.819-36.8,24.843
	c-4.032,0.008-12.661,7.212-15.616,7.212c-5.207,0-40.423,31.606-49.234,46.217c-9.791,16.232-15.294,20.683-25.206,38.946
	c-15.328,28.242-35.266,39.018-90.516,48.921c-29.055,5.208-37.644,19.492-25.544,42.476c8.032,15.256,6.682,22.482-7.056,37.761
	c-8.054,8.958-8.523,13.474-2.224,21.401c5.565,7.002,5.054,9.26-2.954,13.077c-13.28,6.329-12.179,8.053-12.179,36.021
	c-16.622,27.003-33.966,51.901-1.907,68.429c25.2,12.993,56.235,95.126,53.924,106.682c-0.464,2.318-0.21,4.17,0.571,4.17
	c2.396,0,1.989,19.56-3.281,7.567c-12.048-27.416-46.12-67.245-65.733-89.469c-33.666-38.147-46.1-59.591-72.017-124.205
	c-52.998-132.128-73.237-151.59-86.038-250.788c-9.067-70.265-21.193-100.993-101.709-262.602
	c-29.195-58.595-53.515-148.525-69.403-188.528c-18.102-45.578-34.382-81.708-41.711-92.569
	c-17.109-25.353-84.426-90.567-135.483-131.252c-49.558-39.489-48.739-51.816-63.86-70.206
	c-10.817-13.155-20.713-27.428-27.588-32.75c-12.351-9.562-23.913-20.825-46.661-38.103c-7.531-5.72-16.435-12.873-19.786-15.895
	c-10.277-9.269-17.688-6.407-17.688,6.832c0,33.66,67.258,64.82-14.555,34.408C12.811,32.811,1.47,34.979,0.146,56.195
	c-1.032,16.548,3.15,22.634,20.464,29.776c21.389,8.824,12.791,12.327,49.042,30.275c9.489,4.698,18.378,10.175,27.506,15.277
	c5.421,3.03,12.007,4.311,17.609,7.163c5.582,2.842,10.847,6.392,15.072,11.057c2.563,2.83,4.897,6.437,8.328,8.308
	c3.717,2.027,6.954,2.212,8.63,6.738c4.465,12.056,8.053,18.452,13.138,23.417c9.15,8.935,7.309,11.666-3.754,5.568
	c-11.625-6.408-23.256-12.841-35.316-18.407c-6.131-2.829-12.367-5.436-18.732-7.696c-4.358-1.547-9.428-4.072-14.1-3.501
	c-7.823,0.956-15.16,8.314-16.341,15.976c-3.025,19.641,23.967,33.969,37.842,41.012c36.569,18.563,56.527,32.683,67.72,47.91
	c15.096,20.537,45.247,42.706,71.377,52.483c5.133,1.92,11.091,5.724,15.561,9.934c27.022,25.449,41.158,10.506,47.539,91.458
	c6.345,80.498,13.932,95.077,24.592,169.165c18.897,131.329,34.672,154.882,40.99,214.944
	c4.609,43.804,18.224,94.289,32.224,119.479c29.835,53.685,24.748,81.701,94.699,226.435
	c58.231,120.484,77.983,165.818,126.853,245.023c31.055,50.332,60.487,108.265,60.487,119.063c0,5.499-22.831,43.536-35.408,97.029
	c-5.743,24.425-7.667,31.615-18.35,68.566c-23.087,79.857-10.927,156.543,34.622,218.359c24.031,32.612,25.597,35.318,25.785,44.555
	c0.196,9.619,3.197,18.836,6.682,20.523c6.002,2.906,6.588,0.316,11.329,21.599c5.384,24.168,9.139,33.109,18.449,65.381
	c14.131,48.982,19.484,61.17,43.048,98.009c20.651,32.285,22.019,34.079,46.169,60.507c47.884,52.401,33.387,28.508,86.751,72.91
	c43.439,36.144,57.569,34.273,232.772,175.569c45.041,36.324,59.673,50.919,62.84,62.681c1.844,6.847,26.134,31.661,39.678,40.534
	c16.447,10.773,30.298,26.114,45.148,29.877c7.664,1.941,7.701,1.978,9.638,9.55c3.296,12.879,14.03,22.714,21.613,19.804
	c3.176-1.219,13.432,5.907,20.704,7.023l5.045,0.774c-4.611,96.302,3.553,81.843-1.306,100.811
	c-4.924,19.217,6.185,14.189,0.831,48.369c-2.196,14.021-20.403,247.454-0.329,338.708c12.721,57.831,8.719,76.504,13.762,122.283
	c9.299,84.402,7.504,118.071,15.237,156.61c12.529,62.438,11.056,72.257,20.955,101.784c14.211,42.392-3.363,44.724,19.379,106.527
	c11.547,31.38,20.071,56.786,22.713,67.699c4.132,17.071,2.429,173.561-2.621,240.699
	c-22.051,293.135-26.578,312.583-45.544,389.154c-12.602,50.877-5.244,52.233-14,63.291c-4.158,5.251-4.574,6.7-4.574,15.923
	c0,9.4-0.435,10.836-5.919,19.515c-34.021,53.844-26.713,97.055-43.839,171.516c-24.418,106.171-11.581,179.987-20.555,217.128
	c-2.859,11.835-1.005,10.911,2.488,35.821c2.18,15.551,2.57,17.023,9.28,34.995c5.473,14.66,9.724,29.851,14.171,44.842
	c2.272,7.66,4.296,15.417,6.494,23.073c1.938,6.75,4.489,13.145,5.787,20.179c1.25,6.776,2.337,13.669,5.102,19.981
	c3.618,8.257,10.591,13.216,17.755,18.149c8.352,5.751,17.866,10.188,27.973,11.607c13.191,1.867,33.912,1.918,45.213-6.125
	c7.751-5.516,13.824-13.194,18.216-21.579c4.37-8.344,5.562-17.235,8.677-25.885c3.206-8.901,6.72-17.688,9.899-26.599
	c2.086-5.847,5.189-12.623,5.226-18.951c0.039-6.701,0.338-8.913,13.184-55.669c7.299-26.564,7.708-43.85,1.94-82.042
	c-4.206-27.851,8.815-53.953,36.866-73.899c48.893-34.767,70.047-52.433,92.107-76.922c5.56-6.172,5.816-8.279,6.021-49.633
	c0.113-22.707-9.607-43.199-24.448-51.54c-7.708-4.333-8.566-8.777-24.814-24.85c-11.745-11.618-24.5-38.972-24.5-52.541
	c0-18.979-8.033-8.321,5.459-34.104c22.616-43.222,7.426-59.09,47.939-172.07c69.255-193.134,47.174-162.406,78.136-227.811
	c59.192-125.042,24.901-220.056,16.224-312.68c-13.871-148.077-12.575-142.231-35.927-227.727c0-48.844-1.972-63.881,25.135-165.03
	c82.267-306.979,26.012-370.83,89.995-604.978c19.338-70.766,21.663-95.725,29.82-120.722
	c8.946-27.415,15.829-101.781,16.982-108.96c2.391-14.881-1.523-44.134-10.805-80.758c-11.059-43.635-5.531-51.049,19.897-89.217
	c136.099-66.507,206.103-145.778,331.864-225.812c44.149-28.097,77.195-54.194,113.292-75.755
	c118.415-70.727,200.895-69.735,355.854-216.654c57.907-54.902,77.796-70.539,110.802-87.114
	c44.425-22.307,114.504-46.049,220.332-117.826c177.389-120.315,138.509-91.324,202.151-129.789
	c26.798-16.198,97.08-51.569,111.955-63.103c7.287-5.651,8.302-5.986,23.142-7.651c23.827-2.674,24.409-2.82,30.979-7.822
	c5.672-4.317,6.195-5.274,6.592-12.073c0.61-10.442,7.481-14.037,38.209-19.996c27.601-5.353,17.701-11.185,55.045-14.981
	c26.939-2.738,31.708-4.017,51.006-13.674c31.063-15.545,32.177-16.332,47.146-33.272c60.327-68.273,45.145-36.721,58.425-52.554
	c6.433-7.67,14.26-16.693,17.538-21.919c3.613-5.762,15.948-9.075,25.07-18.058c9.066-8.928,8.004-3.273,15.86-12.687
	c8.849-10.602,19.169-14.268,19.169-16.438c0-1.848,19.108-13.89,30.356-19.132c17.667-8.233,55.096-46.088,83.75-84.704
	C3820.857,991.106,3820.497,983.878,3781.036,931.862z M1302.303,1891.483c-4.714,2.991-17.202,4.344-19.429,2.106
	c-3.645-3.663-1.603-32.886,2.084-29.826C1294.02,1871.284,1305.421,1889.504,1302.303,1891.483z M2130.003,1696.286
	c-79.356,27.645-442.151,161.959-459.778,165.285c-5.585,1.053-10.385,3.673-15.909,8.682c-5.871,5.325-21.319,10.984-27.662,10.132
	c-4.699-0.63-5.878-0.171-8.678,3.375c-4.193,5.31-26.86,15.8-34.141,15.8c-9.044,0-2.173,2.474-17.239,12.758
	c-31.17,21.276-50.376-28.689-104.135-3.91c-13.712,6.32-9.273,3.752-25.007-0.739c-3.171-0.905-13.109-5.42-22.084-10.034
	c-22.625-11.63-32.694-12.638-87.513-8.762c-15.911,1.126-17.852-0.108-30.419-19.335c-16.16-24.723-16.673-29.08-8.518-72.311
	c5.395-28.598,6.955-32.545,16.993-43.01c20.76-21.643,23.285-35.424,26.382-38.908c0.237-0.266,7.455,1.2,16.041,3.257
	c24.943,5.977,79.321,11.035,122.989,18.164c13.191,2.153,62.391,0.51,73.343,2.719c54.363,10.969,117.72-13.365,140.217-18.653
	c89.861-21.128,108.202-30.697,166.225-53.362c124.916-48.793,114.293-65.08,124.782-53.831
	c22.82,24.471,34.69,27.844,93.576,26.588c10.054-0.215,18.672,0.721,32.429,3.519c41.702,8.483,70.729,8.206,77.368-0.738
	c13.563-18.27-8.41-37.985-48.151-43.203c-51.507-6.764,4.617-13.673,20.33-8.032c9.776,3.509,10.372,0.877,16.546,6.094
	c2.493,2.107,7.91,5.33,12.039,7.162c15.619,6.931,8.48,15.458,25.785,38.457
	C2222.811,1666.045,2228.805,1661.867,2130.003,1696.286z"/>
</g>
<use xlink:href='#one' y='50' style='fill:url(#dg2);fill-opacity:.15;' 
     transform='scale(.95 .95)'/>
<use xlink:href='#one' y='100' style='fill:url(#dg3);fill-opacity:.2;' 
     transform='scale(.90 .95)'/>
<use xlink:href='#one' y='150' style='fill:url(#dg4);fill-opacity:.25;' 
     transform='scale(.85 .95)'/>

<use xlink:href='#one' y='200' style='fill:url(#dg5);fill-opacity:.3;' 
     transform='scale(.80 .90)'/>
<use xlink:href='#one' y='250' style='fill:url(#dg6);fill-opacity:.35' 
     transform='scale(.75 .90)'/>
<use xlink:href='#one' y='300' style='fill:url(#dg7);fill-opacity:.4;' 
     transform='scale(.70 .90)'/>

<use xlink:href='#one' y='350' style='fill:url(#dg8);fill-opacity:.45;' 
     transform='scale(.80 .85)'/>
<use xlink:href='#one' y='400' style='fill:url(#dg9);fill-opacity:.5' 
     transform='scale(.75 .85)'/>
<use xlink:href='#one' y='450' style='fill:url(#dg10);fill-opacity:.55' 
     transform='scale(.70 .85)'/>

<use xlink:href='#one' y='500' style='fill:url(#dg11);fill-opacity:.6' 
     transform='scale(.80 .80)'/>
<use xlink:href='#one' y='550' style='fill:url(#dg12);fill-opacity:.65' 
     transform='scale(.75 .80)'/>
<use xlink:href='#one' y='600' style='fill:url(#dg13);fill-opacity:.7' 
     transform='scale(.70 .80)'/>

<use xlink:href='#one' y='650' style='fill:url(#dg14);fill-opacity:.8' 
     transform='scale(.65 .75)'/>
<use xlink:href='#one' y='675' style='fill:url(#dg15);fill-opacity:.82' 
     transform='scale(.62 .75)'/>
<use xlink:href='#one' y='700' style='fill:url(#dg16);fill-opacity:.84'
     transform='scale(.6 .75)'/>

<use xlink:href='#one' y='725' style='fill:url(#dg17);fill-opacity:.86' 
     transform='scale(.55 .70)'/>
<use xlink:href='#one' y='750' style='fill:url(#dg18);fill-opacity:.88' 
     transform='scale(.52 .70)'/>
<use xlink:href='#one' y='775' style='fill:url(#dg19);fill-opacity:.9'
     transform='scale(.5 .70)'/>

<use xlink:href='#one' y='800' style='fill:url(#dg20);fill-opacity:.91' 
     transform='scale(.45 .65)'/>
<use xlink:href='#one' y='825' style='fill:url(#dg21);fill-opacity:.92' 
     transform='scale(.44 .65)'/>
<use xlink:href='#one' y='850' style='fill:url(#dg22);fill-opacity:.93'
     transform='scale(.43 .65)'/>

<use xlink:href='#one' y='875' style='fill:url(#dg23);fill-opacity:.94' 
     transform='scale(.42 .60)'/>
<use xlink:href='#one' y='900' style='fill:url(#dg24);fill-opacity:.95' 
     transform='scale(.41 .60)'/>
<use xlink:href='#one' y='925' style='fill:url(#dg25);fill-opacity:.96'
     transform='scale(.4 .60)'/>

<use xlink:href='#one' y='925' style='fill:url(#dg26);fill-opacity:1'
     transform='scale(.35 .55)'/>

</svg>

