<svg width="486" height="274" viewBox="0 0 486 274" fill="none" xmlns="http://www.w3.org/2000/svg">
<path d="M429.926 176C429.19 176 428.592 176.596 428.592 177.333V216H389.926C389.19 216 388.592 216.596 388.592 217.333C388.592 218.071 389.19 218.667 389.926 218.667H431.259V177.333C431.259 176.596 430.662 176 429.926 176ZM96 216H57.3333V177.333C57.3333 176.596 56.7358 176 56 176C55.2636 176 54.6666 176.596 54.6666 177.333V218.667H96C96.7358 218.667 97.3333 218.071 97.3333 217.333C97.3333 216.596 96.7358 216 96 216ZM388.592 55.9998C388.592 56.7372 389.19 57.3332 389.926 57.3332H428.592V95.9998C428.592 96.7372 429.19 97.3332 429.926 97.3332C430.662 97.3332 431.259 96.7372 431.259 95.9998V54.6665H389.926C389.19 54.6665 388.592 55.2625 388.592 55.9998ZM97.3333 55.9998C97.3333 56.7372 96.7358 57.3332 96 57.3332H57.3333V95.9998C57.3333 96.7372 56.7358 97.3332 56 97.3332C55.2636 97.3332 54.6666 96.7372 54.6666 95.9998V54.6665H96C96.7358 54.6665 97.3333 55.2625 97.3333 55.9998Z" fill="white"/>
<!-- <path d="M243.534 246.729C243.294 246.325 242.632 246.325 242.391 246.729L240.391 250.062C240.267 250.268 240.264 250.525 240.383 250.733C240.5 250.943 240.722 251.072 240.963 251.072H244.963C245.203 251.072 245.425 250.943 245.543 250.733C245.662 250.525 245.658 250.268 245.534 250.062L243.534 246.729ZM303.63 235.072V243.072C303.63 243.44 303.331 243.738 302.963 243.738H242.963H182.963C182.594 243.738 182.297 243.44 182.297 243.072V235.072C182.297 234.703 182.594 234.405 182.963 234.405C183.331 234.405 183.63 234.703 183.63 235.072V242.405H186.297V239.072C186.297 238.703 186.594 238.405 186.963 238.405C187.331 238.405 187.63 238.703 187.63 239.072V242.405H190.297V239.072C190.297 238.703 190.594 238.405 190.963 238.405C191.331 238.405 191.63 238.703 191.63 239.072V242.405H194.297V239.072C194.297 238.703 194.594 238.405 194.963 238.405C195.331 238.405 195.63 238.703 195.63 239.072V242.405H198.297V239.072C198.297 238.703 198.594 238.405 198.963 238.405C199.331 238.405 199.63 238.703 199.63 239.072V242.405H202.297V235.072C202.297 234.703 202.594 234.405 202.963 234.405C203.331 234.405 203.63 234.703 203.63 235.072V242.405H206.297V239.072C206.297 238.703 206.594 238.405 206.963 238.405C207.331 238.405 207.63 238.703 207.63 239.072V242.405H210.297V239.072C210.297 238.703 210.594 238.405 210.963 238.405C211.331 238.405 211.63 238.703 211.63 239.072V242.405H214.297V239.072C214.297 238.703 214.594 238.405 214.963 238.405C215.331 238.405 215.63 238.703 215.63 239.072V242.405H218.297V239.072C218.297 238.703 218.594 238.405 218.963 238.405C219.331 238.405 219.63 238.703 219.63 239.072V242.405H222.297V235.072C222.297 234.703 222.594 234.405 222.963 234.405C223.331 234.405 223.63 234.703 223.63 235.072V242.405H226.297V239.072C226.297 238.703 226.594 238.405 226.963 238.405C227.331 238.405 227.63 238.703 227.63 239.072V242.405H230.297V239.072C230.297 238.703 230.594 238.405 230.963 238.405C231.331 238.405 231.63 238.703 231.63 239.072V242.405H234.297V239.072C234.297 238.703 234.594 238.405 234.963 238.405C235.331 238.405 235.63 238.703 235.63 239.072V242.405H238.297V239.072C238.297 238.703 238.594 238.405 238.963 238.405C239.331 238.405 239.63 238.703 239.63 239.072V242.405H242.297V235.072C242.297 234.703 242.594 234.405 242.963 234.405C243.331 234.405 243.63 234.703 243.63 235.072V242.405H246.297V239.072C246.297 238.703 246.594 238.405 246.963 238.405C247.331 238.405 247.63 238.703 247.63 239.072V242.405H250.297V239.072C250.297 238.703 250.594 238.405 250.963 238.405C251.331 238.405 251.63 238.703 251.63 239.072V242.405H254.297V239.072C254.297 238.703 254.594 238.405 254.963 238.405C255.331 238.405 255.63 238.703 255.63 239.072V242.405H258.297V239.072C258.297 238.703 258.594 238.405 258.963 238.405C259.331 238.405 259.63 238.703 259.63 239.072V242.405H262.297V235.072C262.297 234.703 262.594 234.405 262.963 234.405C263.331 234.405 263.63 234.703 263.63 235.072V242.405H266.297V239.072C266.297 238.703 266.594 238.405 266.963 238.405C267.331 238.405 267.63 238.703 267.63 239.072V242.405H270.297V239.072C270.297 238.703 270.594 238.405 270.963 238.405C271.331 238.405 271.63 238.703 271.63 239.072V242.405H274.297V239.072C274.297 238.703 274.594 238.405 274.963 238.405C275.331 238.405 275.63 238.703 275.63 239.072V242.405H278.297V239.072C278.297 238.703 278.594 238.405 278.963 238.405C279.331 238.405 279.63 238.703 279.63 239.072V242.405H282.297V235.072C282.297 234.703 282.594 234.405 282.963 234.405C283.331 234.405 283.63 234.703 283.63 235.072V242.405H286.297V239.072C286.297 238.703 286.594 238.405 286.963 238.405C287.331 238.405 287.63 238.703 287.63 239.072V242.405H290.297V239.072C290.297 238.703 290.594 238.405 290.963 238.405C291.331 238.405 291.63 238.703 291.63 239.072V242.405H294.297V239.072C294.297 238.703 294.594 238.405 294.963 238.405C295.331 238.405 295.63 238.703 295.63 239.072V242.405H298.297V239.072C298.297 238.703 298.594 238.405 298.963 238.405C299.331 238.405 299.63 238.703 299.63 239.072V242.405H302.297V235.072C302.297 234.703 302.594 234.405 302.963 234.405C303.331 234.405 303.63 234.703 303.63 235.072Z" fill="white"/> -->

<path d="M218.963 136.667C218.963 136.299 219.26 136 219.63 136H240.296V115.333C240.296 114.965 240.594 114.667 240.963 114.667C241.331 114.667 241.63 114.965 241.63 115.333V136H262.296C262.664 136 262.963 136.299 262.963 136.667C262.963 137.035 262.664 137.333 262.296 137.333H241.63V158C241.63 158.368 241.331 158.667 240.963 158.667C240.594 158.667 240.296 158.368 240.296 158V137.333H219.63C219.26 137.333 218.963 137.035 218.963 136.667Z" fill="white"/>

</svg>
